<?xml version="1.0" encoding="UTF-8" standalone="no"?>
<!DOCTYPE svg PUBLIC "-//W3C//DTD SVG 1.1//EN"
 "http://www.w3.org/Graphics/SVG/1.1/DTD/svg11.dtd">
<!-- Generated by graphviz version 12.2.0 (20241103.1931)
 -->
<!-- Title: TransactionGraph Pages: 1 -->
<svg width="1657pt" height="398pt"
 viewBox="0.00 0.00 1657.06 398.00" xmlns="http://www.w3.org/2000/svg" xmlns:xlink="http://www.w3.org/1999/xlink">
<g id="graph0" class="graph" transform="scale(1 1) rotate(0) translate(4 394)">
<title>TransactionGraph</title>
<polygon fill="white" stroke="none" points="-4,4 -4,-394 1653.06,-394 1653.06,4 -4,4"/>
<!-- 0x1c5fd981291b12a07676e07fc9ea8561f8a17247 -->
<g id="node1" class="node">
<title>0x1c5fd981291b12a07676e07fc9ea8561f8a17247</title>
<ellipse fill="none" stroke="black" cx="685.68" cy="-372" rx="196.19" ry="18"/>
<text text-anchor="middle" x="685.68" y="-366.95" font-family="Times,serif" font-size="14.00">0x1c5fd981291b12a07676e07fc9ea8561f8a17247</text>
</g>
<!-- 0x0000000071727de22e5e9d8baf0edac6f37da032 -->
<g id="node2" class="node">
<title>0x0000000071727de22e5e9d8baf0edac6f37da032</title>
<ellipse fill="none" stroke="black" cx="685.68" cy="-283.5" rx="197.22" ry="18"/>
<text text-anchor="middle" x="685.68" y="-278.45" font-family="Times,serif" font-size="14.00">0x0000000071727de22e5e9d8baf0edac6f37da032</text>
</g>
<!-- 0x1c5fd981291b12a07676e07fc9ea8561f8a17247&#45;&gt;0x0000000071727de22e5e9d8baf0edac6f37da032 -->
<g id="edge1" class="edge">
<title>0x1c5fd981291b12a07676e07fc9ea8561f8a17247&#45;&gt;0x0000000071727de22e5e9d8baf0edac6f37da032</title>
<path fill="none" stroke="black" d="M661.61,-353.7C656.38,-348.64 651.55,-342.66 648.68,-336 644.76,-326.89 648.18,-317.81 654.26,-309.88"/>
<polygon fill="black" stroke="black" points="656.79,-312.3 660.98,-302.57 651.64,-307.56 656.79,-312.3"/>
<text text-anchor="middle" x="675.68" y="-322.7" font-family="Times,serif" font-size="14.00">CALL (1)</text>
</g>
<!-- 0x0000000071727de22e5e9d8baf0edac6f37da032&#45;&gt;0x1c5fd981291b12a07676e07fc9ea8561f8a17247 -->
<g id="edge12" class="edge">
<title>0x0000000071727de22e5e9d8baf0edac6f37da032&#45;&gt;0x1c5fd981291b12a07676e07fc9ea8561f8a17247</title>
<path fill="none" stroke="black" d="M695.96,-301.73C698.7,-307.22 701.29,-313.44 702.68,-319.5 704.33,-326.65 704.33,-328.85 702.68,-336 702.12,-338.46 701.35,-340.95 700.46,-343.4"/>
<polygon fill="black" stroke="black" points="697.34,-341.81 696.56,-352.38 703.76,-344.6 697.34,-341.81"/>
<text text-anchor="middle" x="730.91" y="-322.7" font-family="Times,serif" font-size="14.00">CALL (4)</text>
</g>
<!-- 0x0000000071727de22e5e9d8baf0edac6f37da032&#45;&gt;0x0000000071727de22e5e9d8baf0edac6f37da032 -->
<g id="edge6" class="edge">
<title>0x0000000071727de22e5e9d8baf0edac6f37da032&#45;&gt;0x0000000071727de22e5e9d8baf0edac6f37da032</title>
<path fill="none" stroke="black" d="M868.98,-290.4C888.42,-289.06 900.9,-286.76 900.9,-283.5 900.9,-280.93 893.13,-278.95 880.3,-277.57"/>
<polygon fill="black" stroke="black" points="880.75,-274.1 870.49,-276.73 880.15,-281.07 880.75,-274.1"/>
<text text-anchor="middle" x="927.9" y="-278.45" font-family="Times,serif" font-size="14.00">CALL (3)</text>
</g>
<!-- 0x4617f2760072b83c1a1f8535486a7aebe4ce4157 -->
<g id="node3" class="node">
<title>0x4617f2760072b83c1a1f8535486a7aebe4ce4157</title>
<ellipse fill="none" stroke="black" cx="608.68" cy="-195" rx="197.22" ry="18"/>
<text text-anchor="middle" x="608.68" y="-189.95" font-family="Times,serif" font-size="14.00">0x4617f2760072b83c1a1f8535486a7aebe4ce4157</text>
</g>
<!-- 0x0000000071727de22e5e9d8baf0edac6f37da032&#45;&gt;0x4617f2760072b83c1a1f8535486a7aebe4ce4157 -->
<g id="edge2" class="edge">
<title>0x0000000071727de22e5e9d8baf0edac6f37da032&#45;&gt;0x4617f2760072b83c1a1f8535486a7aebe4ce4157</title>
<path fill="none" stroke="black" d="M629.77,-265.87C621.84,-261.17 614.69,-255.16 609.68,-247.5 605.27,-240.76 603.84,-232.39 603.84,-224.38"/>
<polygon fill="black" stroke="black" points="607.31,-224.85 604.56,-214.62 600.33,-224.33 607.31,-224.85"/>
<text text-anchor="middle" x="636.68" y="-234.2" font-family="Times,serif" font-size="14.00">CALL (1)</text>
</g>
<!-- 0x0000000071727de22e5e9d8baf0edac6f37da032&#45;&gt;0x4617f2760072b83c1a1f8535486a7aebe4ce4157 -->
<g id="edge7" class="edge">
<title>0x0000000071727de22e5e9d8baf0edac6f37da032&#45;&gt;0x4617f2760072b83c1a1f8535486a7aebe4ce4157</title>
<path fill="none" stroke="black" d="M681.2,-265.33C677.75,-254.58 672.11,-240.93 663.68,-231 660.2,-226.9 656.12,-223.12 651.78,-219.68"/>
<polygon fill="black" stroke="black" points="654.01,-216.97 643.85,-213.98 649.93,-222.65 654.01,-216.97"/>
<text text-anchor="middle" x="705.82" y="-234.2" font-family="Times,serif" font-size="14.00">CALL (3.1)</text>
</g>
<!-- 0xcb0bf4e57fecdca8d4e2fed075e5a1442909fc09 -->
<g id="node5" class="node">
<title>0xcb0bf4e57fecdca8d4e2fed075e5a1442909fc09</title>
<ellipse fill="none" stroke="black" cx="1230.68" cy="-195" rx="192.61" ry="18"/>
<text text-anchor="middle" x="1230.68" y="-189.95" font-family="Times,serif" font-size="14.00">0xcb0bf4e57fecdca8d4e2fed075e5a1442909fc09</text>
</g>
<!-- 0x0000000071727de22e5e9d8baf0edac6f37da032&#45;&gt;0xcb0bf4e57fecdca8d4e2fed075e5a1442909fc09 -->
<g id="edge4" class="edge">
<title>0x0000000071727de22e5e9d8baf0edac6f37da032&#45;&gt;0xcb0bf4e57fecdca8d4e2fed075e5a1442909fc09</title>
<path fill="none" stroke="black" d="M781.24,-267.33C877.21,-252.1 1024.78,-228.68 1124.39,-212.87"/>
<polygon fill="black" stroke="black" points="1124.87,-216.34 1134.2,-211.31 1123.77,-209.42 1124.87,-216.34"/>
<text text-anchor="middle" x="1034" y="-234.2" font-family="Times,serif" font-size="14.00">CALL (2)</text>
</g>
<!-- 0x4c06f11a6974373dcf3d2c571a97ab66e2531fe1 -->
<g id="node4" class="node">
<title>0x4c06f11a6974373dcf3d2c571a97ab66e2531fe1</title>
<ellipse fill="none" stroke="black" cx="195.68" cy="-106.5" rx="195.68" ry="18"/>
<text text-anchor="middle" x="195.68" y="-101.45" font-family="Times,serif" font-size="14.00">0x4c06f11a6974373dcf3d2c571a97ab66e2531fe1</text>
</g>
<!-- 0x4617f2760072b83c1a1f8535486a7aebe4ce4157&#45;&gt;0x4c06f11a6974373dcf3d2c571a97ab66e2531fe1 -->
<g id="edge3" class="edge">
<title>0x4617f2760072b83c1a1f8535486a7aebe4ce4157&#45;&gt;0x4c06f11a6974373dcf3d2c571a97ab66e2531fe1</title>
<path fill="none" stroke="black" d="M440.49,-185.38C369.79,-180.01 296.51,-171.65 264.18,-159 248.61,-152.91 233.52,-142.24 221.47,-132.19"/>
<polygon fill="black" stroke="black" points="223.88,-129.65 214.04,-125.71 219.28,-134.92 223.88,-129.65"/>
<text text-anchor="middle" x="330.93" y="-145.7" font-family="Times,serif" font-size="14.00">DELEGATECALL (1.1)</text>
</g>
<!-- 0x4617f2760072b83c1a1f8535486a7aebe4ce4157&#45;&gt;0x4c06f11a6974373dcf3d2c571a97ab66e2531fe1 -->
<g id="edge8" class="edge">
<title>0x4617f2760072b83c1a1f8535486a7aebe4ce4157&#45;&gt;0x4c06f11a6974373dcf3d2c571a97ab66e2531fe1</title>
<path fill="none" stroke="black" d="M538.58,-177.79C513.93,-171.99 486.04,-165.32 460.68,-159 432.6,-152 425.97,-148.64 397.68,-142.5 367.32,-135.91 334.19,-129.74 303.69,-124.48"/>
<polygon fill="black" stroke="black" points="304.53,-121.07 294.08,-122.84 303.35,-127.97 304.53,-121.07"/>
<text text-anchor="middle" x="532.68" y="-145.7" font-family="Times,serif" font-size="14.00">DELEGATECALL (3.1.1)</text>
</g>
<!-- 0xa1fd029ddc506d0cb7484664a50c33db6622120e -->
<g id="node7" class="node">
<title>0xa1fd029ddc506d0cb7484664a50c33db6622120e</title>
<ellipse fill="none" stroke="black" cx="608.68" cy="-106.5" rx="199.78" ry="18"/>
<text text-anchor="middle" x="608.68" y="-101.45" font-family="Times,serif" font-size="14.00">0xa1fd029ddc506d0cb7484664a50c33db6622120e</text>
</g>
<!-- 0x4617f2760072b83c1a1f8535486a7aebe4ce4157&#45;&gt;0xa1fd029ddc506d0cb7484664a50c33db6622120e -->
<g id="edge9" class="edge">
<title>0x4617f2760072b83c1a1f8535486a7aebe4ce4157&#45;&gt;0xa1fd029ddc506d0cb7484664a50c33db6622120e</title>
<path fill="none" stroke="black" d="M608.68,-176.91C608.68,-165.26 608.68,-149.55 608.68,-136.02"/>
<polygon fill="black" stroke="black" points="612.18,-136.36 608.68,-126.36 605.18,-136.36 612.18,-136.36"/>
<text text-anchor="middle" x="659.68" y="-145.7" font-family="Times,serif" font-size="14.00">CREATE (3.1.1.1)</text>
</g>
<!-- 0x000000000000000000636f6e736f6c652e6c6f67 -->
<g id="node9" class="node">
<title>0x000000000000000000636f6e736f6c652e6c6f67</title>
<ellipse fill="none" stroke="black" cx="1024.68" cy="-106.5" rx="197.73" ry="18"/>
<text text-anchor="middle" x="1024.68" y="-101.45" font-family="Times,serif" font-size="14.00">0x000000000000000000636f6e736f6c652e6c6f67</text>
</g>
<!-- 0x4617f2760072b83c1a1f8535486a7aebe4ce4157&#45;&gt;0x000000000000000000636f6e736f6c652e6c6f67 -->
<g id="edge11" class="edge">
<title>0x4617f2760072b83c1a1f8535486a7aebe4ce4157&#45;&gt;0x000000000000000000636f6e736f6c652e6c6f67</title>
<path fill="none" stroke="black" d="M685.47,-178.03C756.48,-163.27 861.97,-141.33 936.43,-125.85"/>
<polygon fill="black" stroke="black" points="937.08,-129.29 946.16,-123.83 935.65,-122.44 937.08,-129.29"/>
<text text-anchor="middle" x="919.57" y="-145.7" font-family="Times,serif" font-size="14.00">STATICCALL (3.1.1.2)</text>
</g>
<!-- 0x0000000000000000000000000000000000000001 -->
<g id="node6" class="node">
<title>0x0000000000000000000000000000000000000001</title>
<ellipse fill="none" stroke="black" cx="1444.68" cy="-106.5" rx="204.38" ry="18"/>
<text text-anchor="middle" x="1444.68" y="-101.45" font-family="Times,serif" font-size="14.00">0x0000000000000000000000000000000000000001</text>
</g>
<!-- 0xcb0bf4e57fecdca8d4e2fed075e5a1442909fc09&#45;&gt;0x0000000000000000000000000000000000000001 -->
<g id="edge5" class="edge">
<title>0xcb0bf4e57fecdca8d4e2fed075e5a1442909fc09&#45;&gt;0x0000000000000000000000000000000000000001</title>
<path fill="none" stroke="black" d="M1272.71,-177.01C1306.83,-163.22 1355.14,-143.69 1391.87,-128.85"/>
<polygon fill="black" stroke="black" points="1393.02,-132.15 1400.98,-125.16 1390.4,-125.67 1393.02,-132.15"/>
<text text-anchor="middle" x="1411.97" y="-145.7" font-family="Times,serif" font-size="14.00">STATICCALL (2.1)</text>
</g>
<!-- 0x7190397111bf98bdf6af8c0fbdf413ef6ab36edf -->
<g id="node8" class="node">
<title>0x7190397111bf98bdf6af8c0fbdf413ef6ab36edf</title>
<ellipse fill="none" stroke="black" cx="608.68" cy="-18" rx="191.08" ry="18"/>
<text text-anchor="middle" x="608.68" y="-12.95" font-family="Times,serif" font-size="14.00">0x7190397111bf98bdf6af8c0fbdf413ef6ab36edf</text>
</g>
<!-- 0xa1fd029ddc506d0cb7484664a50c33db6622120e&#45;&gt;0x7190397111bf98bdf6af8c0fbdf413ef6ab36edf -->
<g id="edge10" class="edge">
<title>0xa1fd029ddc506d0cb7484664a50c33db6622120e&#45;&gt;0x7190397111bf98bdf6af8c0fbdf413ef6ab36edf</title>
<path fill="none" stroke="black" d="M608.68,-88.41C608.68,-76.76 608.68,-61.05 608.68,-47.52"/>
<polygon fill="black" stroke="black" points="612.18,-47.86 608.68,-37.86 605.18,-47.86 612.18,-47.86"/>
<text text-anchor="middle" x="664.93" y="-57.2" font-family="Times,serif" font-size="14.00">CREATE (3.1.1.1.1)</text>
</g>
</g>
</svg>
