<?xml version="1.0" encoding="UTF-8" standalone="no"?>
<!DOCTYPE svg PUBLIC "-//W3C//DTD SVG 1.1//EN"
 "http://www.w3.org/Graphics/SVG/1.1/DTD/svg11.dtd">
<!-- Generated by graphviz version 12.2.0 (20241103.1931)
 -->
<!-- Title: TransactionGraph Pages: 1 -->
<svg width="1239pt" height="398pt"
 viewBox="0.00 0.00 1239.02 398.00" xmlns="http://www.w3.org/2000/svg" xmlns:xlink="http://www.w3.org/1999/xlink">
<g id="graph0" class="graph" transform="scale(1 1) rotate(0) translate(4 394)">
<title>TransactionGraph</title>
<polygon fill="white" stroke="none" points="-4,4 -4,-394 1235.02,-394 1235.02,4 -4,4"/>
<!-- 0x0e8e4e2d65f27a1f0fd50e14f017ee3df6214617 -->
<g id="node1" class="node">
<title>0x0e8e4e2d65f27a1f0fd50e14f017ee3df6214617</title>
<ellipse fill="none" stroke="black" cx="581.63" cy="-372" rx="193.12" ry="18"/>
<text text-anchor="middle" x="581.63" y="-366.95" font-family="Times,serif" font-size="14.00">0x0e8e4e2d65f27a1f0fd50e14f017ee3df6214617</text>
</g>
<!-- 0x0000000071727de22e5e9d8baf0edac6f37da032 -->
<g id="node2" class="node">
<title>0x0000000071727de22e5e9d8baf0edac6f37da032</title>
<ellipse fill="none" stroke="black" cx="581.63" cy="-283.5" rx="197.22" ry="18"/>
<text text-anchor="middle" x="581.63" y="-278.45" font-family="Times,serif" font-size="14.00">0x0000000071727de22e5e9d8baf0edac6f37da032</text>
</g>
<!-- 0x0e8e4e2d65f27a1f0fd50e14f017ee3df6214617&#45;&gt;0x0000000071727de22e5e9d8baf0edac6f37da032 -->
<g id="edge1" class="edge">
<title>0x0e8e4e2d65f27a1f0fd50e14f017ee3df6214617&#45;&gt;0x0000000071727de22e5e9d8baf0edac6f37da032</title>
<path fill="none" stroke="black" d="M557.56,-353.7C552.33,-348.64 547.5,-342.66 544.63,-336 540.71,-326.89 544.13,-317.81 550.21,-309.88"/>
<polygon fill="black" stroke="black" points="552.74,-312.3 556.94,-302.57 547.59,-307.56 552.74,-312.3"/>
<text text-anchor="middle" x="571.63" y="-322.7" font-family="Times,serif" font-size="14.00">CALL (1)</text>
</g>
<!-- 0x0000000071727de22e5e9d8baf0edac6f37da032&#45;&gt;0x0e8e4e2d65f27a1f0fd50e14f017ee3df6214617 -->
<g id="edge11" class="edge">
<title>0x0000000071727de22e5e9d8baf0edac6f37da032&#45;&gt;0x0e8e4e2d65f27a1f0fd50e14f017ee3df6214617</title>
<path fill="none" stroke="black" d="M591.91,-301.73C594.65,-307.22 597.24,-313.44 598.63,-319.5 600.28,-326.65 600.28,-328.85 598.63,-336 598.07,-338.46 597.31,-340.95 596.41,-343.4"/>
<polygon fill="black" stroke="black" points="593.29,-341.81 592.51,-352.38 599.71,-344.6 593.29,-341.81"/>
<text text-anchor="middle" x="626.87" y="-322.7" font-family="Times,serif" font-size="14.00">CALL (4)</text>
</g>
<!-- 0x0000000071727de22e5e9d8baf0edac6f37da032&#45;&gt;0x0000000071727de22e5e9d8baf0edac6f37da032 -->
<g id="edge6" class="edge">
<title>0x0000000071727de22e5e9d8baf0edac6f37da032&#45;&gt;0x0000000071727de22e5e9d8baf0edac6f37da032</title>
<path fill="none" stroke="black" d="M764.93,-290.4C784.37,-289.06 796.85,-286.76 796.85,-283.5 796.85,-280.93 789.08,-278.95 776.25,-277.57"/>
<polygon fill="black" stroke="black" points="776.7,-274.1 766.44,-276.73 776.1,-281.07 776.7,-274.1"/>
<text text-anchor="middle" x="823.85" y="-278.45" font-family="Times,serif" font-size="14.00">CALL (3)</text>
</g>
<!-- 0xeb74fdffc7181a1ad9cf23bd5c68148997ab22d1 -->
<g id="node3" class="node">
<title>0xeb74fdffc7181a1ad9cf23bd5c68148997ab22d1</title>
<ellipse fill="none" stroke="black" cx="504.63" cy="-195" rx="194.66" ry="18"/>
<text text-anchor="middle" x="504.63" y="-189.95" font-family="Times,serif" font-size="14.00">0xeb74fdffc7181a1ad9cf23bd5c68148997ab22d1</text>
</g>
<!-- 0x0000000071727de22e5e9d8baf0edac6f37da032&#45;&gt;0xeb74fdffc7181a1ad9cf23bd5c68148997ab22d1 -->
<g id="edge2" class="edge">
<title>0x0000000071727de22e5e9d8baf0edac6f37da032&#45;&gt;0xeb74fdffc7181a1ad9cf23bd5c68148997ab22d1</title>
<path fill="none" stroke="black" d="M525.72,-265.87C517.79,-261.17 510.64,-255.16 505.63,-247.5 501.23,-240.76 499.8,-232.39 499.79,-224.38"/>
<polygon fill="black" stroke="black" points="503.27,-224.85 500.52,-214.62 496.29,-224.33 503.27,-224.85"/>
<text text-anchor="middle" x="532.63" y="-234.2" font-family="Times,serif" font-size="14.00">CALL (1)</text>
</g>
<!-- 0x0000000071727de22e5e9d8baf0edac6f37da032&#45;&gt;0xeb74fdffc7181a1ad9cf23bd5c68148997ab22d1 -->
<g id="edge7" class="edge">
<title>0x0000000071727de22e5e9d8baf0edac6f37da032&#45;&gt;0xeb74fdffc7181a1ad9cf23bd5c68148997ab22d1</title>
<path fill="none" stroke="black" d="M577.15,-265.33C573.7,-254.58 568.07,-240.93 559.63,-231 556.15,-226.9 552.07,-223.12 547.73,-219.68"/>
<polygon fill="black" stroke="black" points="549.96,-216.97 539.8,-213.98 545.88,-222.65 549.96,-216.97"/>
<text text-anchor="middle" x="601.78" y="-234.2" font-family="Times,serif" font-size="14.00">CALL (3.1)</text>
</g>
<!-- 0xcb0bf4e57fecdca8d4e2fed075e5a1442909fc09 -->
<g id="node5" class="node">
<title>0xcb0bf4e57fecdca8d4e2fed075e5a1442909fc09</title>
<ellipse fill="none" stroke="black" cx="967.63" cy="-195" rx="192.61" ry="18"/>
<text text-anchor="middle" x="967.63" y="-189.95" font-family="Times,serif" font-size="14.00">0xcb0bf4e57fecdca8d4e2fed075e5a1442909fc09</text>
</g>
<!-- 0x0000000071727de22e5e9d8baf0edac6f37da032&#45;&gt;0xcb0bf4e57fecdca8d4e2fed075e5a1442909fc09 -->
<g id="edge4" class="edge">
<title>0x0000000071727de22e5e9d8baf0edac6f37da032&#45;&gt;0xcb0bf4e57fecdca8d4e2fed075e5a1442909fc09</title>
<path fill="none" stroke="black" d="M653.78,-266.33C719.31,-251.65 815.93,-230 884.63,-214.6"/>
<polygon fill="black" stroke="black" points="885.37,-218.02 894.36,-212.42 883.84,-211.19 885.37,-218.02"/>
<text text-anchor="middle" x="836.21" y="-234.2" font-family="Times,serif" font-size="14.00">CALL (2)</text>
</g>
<!-- 0x0df45f7325d9f5e439fb266028305e8a6ee94f3e -->
<g id="node4" class="node">
<title>0x0df45f7325d9f5e439fb266028305e8a6ee94f3e</title>
<ellipse fill="none" stroke="black" cx="193.63" cy="-106.5" rx="193.63" ry="18"/>
<text text-anchor="middle" x="193.63" y="-101.45" font-family="Times,serif" font-size="14.00">0x0df45f7325d9f5e439fb266028305e8a6ee94f3e</text>
</g>
<!-- 0xeb74fdffc7181a1ad9cf23bd5c68148997ab22d1&#45;&gt;0x0df45f7325d9f5e439fb266028305e8a6ee94f3e -->
<g id="edge3" class="edge">
<title>0xeb74fdffc7181a1ad9cf23bd5c68148997ab22d1&#45;&gt;0x0df45f7325d9f5e439fb266028305e8a6ee94f3e</title>
<path fill="none" stroke="black" d="M348.75,-183.96C318.58,-178.63 287.77,-170.7 260.13,-159 245.13,-152.65 230.58,-142.05 218.93,-132.12"/>
<polygon fill="black" stroke="black" points="221.55,-129.77 211.76,-125.74 216.9,-135 221.55,-129.77"/>
<text text-anchor="middle" x="326.88" y="-145.7" font-family="Times,serif" font-size="14.00">DELEGATECALL (1.1)</text>
</g>
<!-- 0xeb74fdffc7181a1ad9cf23bd5c68148997ab22d1&#45;&gt;0x0df45f7325d9f5e439fb266028305e8a6ee94f3e -->
<g id="edge8" class="edge">
<title>0xeb74fdffc7181a1ad9cf23bd5c68148997ab22d1&#45;&gt;0x0df45f7325d9f5e439fb266028305e8a6ee94f3e</title>
<path fill="none" stroke="black" d="M455.05,-177.22C441.91,-172.05 427.96,-165.88 415.63,-159 404.96,-153.04 404.85,-147.35 393.63,-142.5 374.21,-134.1 352.9,-127.71 331.65,-122.85"/>
<polygon fill="black" stroke="black" points="332.55,-119.47 322.04,-120.77 331.07,-126.31 332.55,-119.47"/>
<text text-anchor="middle" x="487.63" y="-145.7" font-family="Times,serif" font-size="14.00">DELEGATECALL (3.1.1)</text>
</g>
<!-- 0xdd3b92f649261d42b90ab21134184e92cf71ed41 -->
<g id="node7" class="node">
<title>0xdd3b92f649261d42b90ab21134184e92cf71ed41</title>
<ellipse fill="none" stroke="black" cx="604.63" cy="-106.5" rx="199.26" ry="18"/>
<text text-anchor="middle" x="604.63" y="-101.45" font-family="Times,serif" font-size="14.00">0xdd3b92f649261d42b90ab21134184e92cf71ed41</text>
</g>
<!-- 0xeb74fdffc7181a1ad9cf23bd5c68148997ab22d1&#45;&gt;0xdd3b92f649261d42b90ab21134184e92cf71ed41 -->
<g id="edge9" class="edge">
<title>0xeb74fdffc7181a1ad9cf23bd5c68148997ab22d1&#45;&gt;0xdd3b92f649261d42b90ab21134184e92cf71ed41</title>
<path fill="none" stroke="black" d="M538.23,-176.92C546.93,-171.74 556,-165.65 563.63,-159 572.11,-151.61 580.13,-142.29 586.79,-133.62"/>
<polygon fill="black" stroke="black" points="589.43,-135.93 592.54,-125.8 583.8,-131.78 589.43,-135.93"/>
<text text-anchor="middle" x="629.76" y="-145.7" font-family="Times,serif" font-size="14.00">CREATE (3.1.1.1)</text>
</g>
<!-- 0x0000000000000000000000000000000000000001 -->
<g id="node6" class="node">
<title>0x0000000000000000000000000000000000000001</title>
<ellipse fill="none" stroke="black" cx="1026.63" cy="-106.5" rx="204.38" ry="18"/>
<text text-anchor="middle" x="1026.63" y="-101.45" font-family="Times,serif" font-size="14.00">0x0000000000000000000000000000000000000001</text>
</g>
<!-- 0xcb0bf4e57fecdca8d4e2fed075e5a1442909fc09&#45;&gt;0x0000000000000000000000000000000000000001 -->
<g id="edge5" class="edge">
<title>0xcb0bf4e57fecdca8d4e2fed075e5a1442909fc09&#45;&gt;0x0000000000000000000000000000000000000001</title>
<path fill="none" stroke="black" d="M979.29,-176.91C987.64,-164.67 999.04,-147.95 1008.57,-133.99"/>
<polygon fill="black" stroke="black" points="1011.2,-136.33 1013.95,-126.1 1005.42,-132.39 1011.2,-136.33"/>
<text text-anchor="middle" x="1057.54" y="-145.7" font-family="Times,serif" font-size="14.00">STATICCALL (2.1)</text>
</g>
<!-- 0x9ee4771e7d309f6854061b789f92944a0c523265 -->
<g id="node8" class="node">
<title>0x9ee4771e7d309f6854061b789f92944a0c523265</title>
<ellipse fill="none" stroke="black" cx="604.63" cy="-18" rx="198.75" ry="18"/>
<text text-anchor="middle" x="604.63" y="-12.95" font-family="Times,serif" font-size="14.00">0x9ee4771e7d309f6854061b789f92944a0c523265</text>
</g>
<!-- 0xdd3b92f649261d42b90ab21134184e92cf71ed41&#45;&gt;0x9ee4771e7d309f6854061b789f92944a0c523265 -->
<g id="edge10" class="edge">
<title>0xdd3b92f649261d42b90ab21134184e92cf71ed41&#45;&gt;0x9ee4771e7d309f6854061b789f92944a0c523265</title>
<path fill="none" stroke="black" d="M604.63,-88.41C604.63,-76.76 604.63,-61.05 604.63,-47.52"/>
<polygon fill="black" stroke="black" points="608.13,-47.86 604.63,-37.86 601.13,-47.86 608.13,-47.86"/>
<text text-anchor="middle" x="660.88" y="-57.2" font-family="Times,serif" font-size="14.00">CREATE (3.1.1.1.1)</text>
</g>
</g>
</svg>
